<?xml version="1.0" encoding="UTF-8" standalone="no"?>
<!-- Created with Inkscape (http://www.inkscape.org/) -->

<svg
   xmlns:dc="http://purl.org/dc/elements/1.1/"
   xmlns:cc="http://creativecommons.org/ns#"
   xmlns:rdf="http://www.w3.org/1999/02/22-rdf-syntax-ns#"
   xmlns:svg="http://www.w3.org/2000/svg"
   xmlns="http://www.w3.org/2000/svg"
   xmlns:sodipodi="http://sodipodi.sourceforge.net/DTD/sodipodi-0.dtd"
   xmlns:inkscape="http://www.inkscape.org/namespaces/inkscape"
   width="744.09448819"
   height="1052.3622047"
   id="svg3236"
   version="1.1"
   inkscape:version="0.48.1 r9760"
   sodipodi:docname="New document 2">
  <defs
     id="defs3238" />
  <sodipodi:namedview
     id="base"
     pagecolor="#ffffff"
     bordercolor="#666666"
     borderopacity="1.0"
     inkscape:pageopacity="0.0"
     inkscape:pageshadow="2"
     inkscape:zoom="1.979899"
     inkscape:cx="176.71389"
     inkscape:cy="887.12166"
     inkscape:document-units="px"
     inkscape:current-layer="layer1"
     showgrid="false"
     inkscape:window-width="1920"
     inkscape:window-height="1005"
     inkscape:window-x="0"
     inkscape:window-y="25"
     inkscape:window-maximized="1" />
  <metadata
     id="metadata3241">
    <rdf:RDF>
      <cc:Work
         rdf:about="">
        <dc:format>image/svg+xml</dc:format>
        <dc:type
           rdf:resource="http://purl.org/dc/dcmitype/StillImage" />
        <dc:title></dc:title>
      </cc:Work>
    </rdf:RDF>
  </metadata>
  <g
     inkscape:label="Layer 1"
     inkscape:groupmode="layer"
     id="layer1">
    <g
       id="g4334">
      <path
         id="path23126-3-4-9-7-9-4-6-6"
         d="m 311.25809,89.481124 -0.0101,0.02958 c -19.44966,-6.629271 -40.94824,-2.41652 -56.41418,11.112746 -23.90828,20.91441 -26.34392,57.30773 -5.42954,81.216 l 16.67129,-14.62215 c -3.95669,-4.51758 -6.8239,-10.1046 -8.07186,-16.41959 -1.4985,-7.58288 -0.42323,-15.08171 2.57675,-21.60519 1.52601,1.76713 3.49737,3.51936 5.85549,5.09925 1.52204,1.01973 3.0818,1.87539 4.57809,2.55086 -3.8405,7.31609 -5.01994,13.69511 -2.47561,15.39976 3.14742,2.10871 10.78324,-3.74469 17.03641,-13.07804 6.25316,-9.33334 8.75196,-18.59654 5.60456,-20.70524 -2.54435,-1.70466 -7.99177,1.77794 -13.29705,8.11267 -1.19385,-1.12686 -2.58688,-2.22961 -4.10891,-3.24935 -2.35812,-1.5799 -4.7189,-2.7467 -6.93366,-3.48581 4.89196,-5.25589 11.40317,-9.06614 18.98604,-10.56466 6.31499,-1.24797 12.59112,-0.73024 18.27418,1.21028 l 0.0101,-0.0296 c 5.68551,1.93364 10.97123,5.35708 15.2093,10.20232 5.08921,5.81771 7.90788,12.84099 8.57154,19.99049 -2.20514,-0.76735 -4.78708,-1.28528 -7.61922,-1.47444 -1.82799,-0.1221 -3.61458,-0.0701 -5.24816,0.0931 -0.33208,-8.25618 -2.49842,-14.39992 -5.55421,-14.60403 -3.78011,-0.25248 -7.46888,8.63814 -8.2176,19.84763 -0.74872,11.20949 1.72272,20.50789 5.50282,20.76038 3.05581,0.20411 6.01776,-5.56734 7.44489,-13.70602 1.59735,0.37897 3.355,0.65402 5.183,0.77613 2.83213,0.18916 5.49284,0.0157 7.78044,-0.45154 -0.042,0.18235 -0.0775,0.37116 -0.12231,0.55259 -0.0624,0.25318 -0.12476,0.50769 -0.19289,0.75964 -0.0719,0.265 -0.15462,0.51627 -0.23259,0.77912 -0.15313,0.51621 -0.31863,1.04084 -0.49472,1.54817 -0.0275,0.0793 -0.0526,0.15751 -0.0807,0.23664 -0.30338,0.85444 -0.65816,1.69696 -1.02501,2.52296 -0.0332,0.0757 -0.0762,0.15129 -0.11019,0.22657 -0.22054,0.48742 -0.44954,0.97169 -0.69164,1.44804 -0.13108,0.25779 -0.26286,0.53283 -0.40061,0.78789 -0.11212,0.20744 -0.22393,0.4053 -0.34012,0.61041 -0.0161,0.0285 -0.0436,0.0502 -0.0598,0.0786 -0.24821,0.43531 -0.50334,0.86513 -0.76963,1.2894 -0.56745,0.90407 -1.17945,1.79645 -1.82631,2.64603 -0.2826,0.36988 -0.56824,0.73052 -0.86713,1.0911 -0.0422,0.0511 -0.0771,0.10638 -0.11964,0.15731 -1.16267,1.3869 -2.44724,2.70886 -3.85102,3.93685 -4.84495,4.23826 -10.52751,6.91116 -16.41959,8.07186 l 4.28075,21.73049 c 6.91707,-1.36695 13.41254,-3.97148 19.22285,-7.5786 5.79818,15.68661 18.34619,28.73662 35.40275,34.55022 l 0.0101,-0.0295 c 19.44181,6.61477 40.92657,2.39951 56.38459,-11.12283 23.90828,-20.91441 26.34392,-57.30773 5.42955,-81.216 l -16.67129,14.62215 c 3.95667,4.51758 6.82389,10.1046 8.07185,16.41959 1.49851,7.58288 0.45282,15.09178 -2.54716,21.61527 -1.52602,-1.76713 -3.52695,-3.52944 -5.88507,-5.10932 -1.52204,-1.01975 -3.0818,-1.8754 -4.57809,-2.55087 3.84049,-7.3161 5.01993,-13.69511 2.47561,-15.39976 -3.14743,-2.10872 -10.78325,3.74469 -17.03641,13.07804 -6.25316,9.33334 -8.75198,18.59654 -5.60456,20.70524 2.54434,1.70466 7.99177,-1.77795 13.29705,-8.11267 1.19385,1.12685 2.58688,2.22961 4.1089,3.24935 2.35812,1.57989 4.7189,2.7467 6.93367,3.48581 -4.89196,5.25589 -11.40317,9.06614 -18.98605,10.56466 -6.31498,1.24797 -12.59111,0.73024 -18.27417,-1.21028 l -0.0101,0.0295 c -5.68551,-1.93364 -10.97123,-5.35708 -15.20931,-10.20232 -5.08921,-5.8177 -7.90786,-12.84099 -8.57154,-19.99048 2.20515,0.76735 4.78709,1.28528 7.61923,1.47443 1.82799,0.12211 3.61458,0.0701 5.24815,-0.0931 0.33208,8.25618 2.49842,14.39992 5.55422,14.60403 3.78011,0.25249 7.46887,-8.63814 8.21759,-19.84762 0.74872,-11.2095 -1.72272,-20.50791 -5.50282,-20.76038 -3.0558,-0.20411 -6.01775,5.56733 -7.44489,13.70601 -1.59735,-0.37896 -3.35501,-0.65402 -5.18299,-0.77612 -2.83214,-0.18916 -5.46327,-0.006 -7.75087,0.46161 0.10057,-0.43735 0.19814,-0.87827 0.3152,-1.31222 0.11706,-0.43395 0.2407,-0.8621 0.37436,-1.29207 0.2612,-0.84042 0.56226,-1.68185 0.88648,-2.50415 0.004,-0.01 0.006,-0.02 0.0101,-0.0295 0.004,-0.009 0.006,-0.02 0.0101,-0.0295 0.19768,-0.49877 0.41161,-0.97735 0.63248,-1.46821 0.15127,-0.33438 0.30974,-0.66571 0.47118,-0.99493 0.0275,-0.0559 0.0624,-0.11155 0.09,-0.16741 0.0844,-0.16982 0.15355,-0.34389 0.24063,-0.51226 0.182,-0.35357 0.36604,-0.71521 0.56058,-1.06352 0.0373,-0.0663 0.0921,-0.12075 0.12973,-0.18689 0.24821,-0.4353 0.50334,-0.86512 0.76964,-1.28939 0.27171,-0.4329 0.54872,-0.87806 0.83887,-1.29881 0.0259,-0.0376 0.0735,-0.0607 0.0995,-0.0982 0.59379,-0.85603 1.19768,-1.68752 1.87472,-2.49747 1.16005,-1.38779 2.44723,-2.70886 3.85101,-3.93685 4.84497,-4.23827 10.52751,-6.91116 16.41959,-8.07186 l -4.28075,-21.73049 c -6.918,1.36712 -13.41265,3.97188 -19.22285,7.5786 -5.78943,-15.68363 -18.3166,-28.726534 -35.37316,-34.54014 z"
         style="fill:none;stroke:#000000;stroke-width:1;stroke-linecap:butt;stroke-linejoin:bevel;stroke-miterlimit:4;stroke-opacity:1;stroke-dasharray:none;display:inline"
         inkscape:connector-curvature="0" />
      <path
         id="path17707-5-2-9"
         d="m 304.05701,110.29963 c -5.68754,-1.92705 -11.92843,-2.4484 -18.2446,-1.20018 -7.61936,1.50573 -14.18869,5.34109 -19.10503,10.62316 a 0.17524351,0.17524351 0 0 0 -0.0497,0.0491 0.17524351,0.17524351 0 0 0 0.009,0.0692 0.17524351,0.17524351 0 0 0 -0.01,0.0295 0.17524351,0.17524351 0 0 0 0.0195,0.0396 0.17524351,0.17524351 0 0 0 0.0195,0.0396 0.17524351,0.17524351 0 0 0 0.0295,0.01 0.17524351,0.17524351 0 0 0 0.0195,0.0396 0.17524351,0.17524351 0 0 0 0.0295,0.01 c 2.1977,0.73343 4.59769,1.88443 6.94375,3.45624 1.51414,1.01446 2.86319,2.10923 4.04974,3.22919 a 0.17524351,0.17524351 0 0 0 0.0491,0.0497 0.17524351,0.17524351 0 0 0 0.0692,-0.009 0.17524351,0.17524351 0 0 0 0.0295,0.01 0.17524351,0.17524351 0 0 0 0.0396,-0.0195 0.17524351,0.17524351 0 0 0 0.0396,-0.0195 0.17524351,0.17524351 0 0 0 0.01,-0.0295 c 2.6437,-3.15668 5.35039,-5.59208 7.67652,-7.024 1.16306,-0.71596 2.21808,-1.19328 3.14197,-1.37221 0.92388,-0.17895 1.71133,-0.0728 2.3004,0.32185 0.72867,0.4882 1.11898,1.4165 1.227,2.69628 0.10802,1.27978 -0.0924,2.88942 -0.59532,4.7494 -1.00586,3.71994 -3.17638,8.38841 -6.29406,13.04179 -3.11764,4.65335 -6.58605,8.42586 -9.64865,10.77585 -1.53131,1.175 -2.94993,1.98458 -4.17647,2.37325 -1.22655,0.38866 -2.26499,0.35918 -2.99348,-0.12888 -0.58897,-0.39461 -0.9489,-1.08114 -1.13284,-2.00388 -0.18396,-0.92273 -0.17961,-2.07061 0.0428,-3.419 0.44485,-2.69677 1.7096,-6.11324 3.62345,-9.75907 a 0.17524351,0.17524351 0 0 0 0.01,-0.0295 0.17524351,0.17524351 0 0 0 -0.009,-0.0691 0.17524351,0.17524351 0 0 0 -0.009,-0.0692 0.17524351,0.17524351 0 0 0 -0.0195,-0.0396 0.17524351,0.17524351 0 0 0 -0.0295,-0.01 0.17524351,0.17524351 0 0 0 -0.0195,-0.0396 c -1.48733,-0.67144 -3.07447,-1.50715 -4.58816,-2.5213 -2.34586,-1.57167 -4.28165,-3.32509 -5.79633,-5.07907 a 0.17524351,0.17524351 0 0 0 -0.0294,-0.01 0.17524351,0.17524351 0 0 0 -0.0491,-0.0497 0.17524351,0.17524351 0 0 0 -0.0988,-6.1e-4 0.17524351,0.17524351 0 0 0 -0.0396,0.0195 0.17524351,0.17524351 0 0 0 -0.0396,0.0195 0.17524351,0.17524351 0 0 0 -0.01,0.0295 0.17524351,0.17524351 0 0 0 -0.0396,0.0195 c -3.01466,6.55535 -4.09337,14.11351 -2.5875,21.73358 1.24133,6.28145 4.07933,11.84437 7.9932,16.35977 l -16.53227,14.50456 a 0.17524351,0.17524351 0 0 0 -0.01,0.0294 0.17524351,0.17524351 0 0 0 -0.0497,0.0491 0.17524351,0.17524351 0 0 0 0.009,0.0692 0.17524351,0.17524351 0 0 0 -0.01,0.0295 0.17524351,0.17524351 0 0 0 0.0195,0.0396 0.17524351,0.17524351 0 0 0 0.0195,0.0396 c 13.57041,15.51301 34.423,22.58729 54.64256,18.59157 a 0.17524351,0.17524351 0 0 0 0.0396,-0.0195 0.17524351,0.17524351 0 0 0 0.0497,-0.0491 0.17524351,0.17524351 0 0 0 0.0497,-0.0491 0.17524351,0.17524351 0 0 0 -0.009,-0.0691 0.17524351,0.17524351 0 0 0 0.01,-0.0295 l -4.272,-21.56247 c 14.0819,-2.85654 24.53994,-13.68561 27.57494,-26.85214 a 0.17524351,0.17524351 0 0 0 -0.0195,-0.0396 0.17524351,0.17524351 0 0 0 0.01,-0.0296 0.17524351,0.17524351 0 0 0 -0.0195,-0.0396 0.17524351,0.17524351 0 0 0 -0.0195,-0.0396 0.17524351,0.17524351 0 0 0 -0.0786,-0.0598 0.17524351,0.17524351 0 0 0 -0.0691,0.009 0.17524351,0.17524351 0 0 0 -0.0295,-0.01 c -2.26118,0.45838 -4.90628,0.62948 -7.71122,0.44211 -1.82041,-0.12157 -3.56798,-0.3899 -5.15341,-0.76605 a 0.17524351,0.17524351 0 0 0 -0.0396,0.0195 0.17524351,0.17524351 0 0 0 -0.0295,-0.01 0.17524351,0.17524351 0 0 0 -0.0396,0.0195 0.17524351,0.17524351 0 0 0 -0.0396,0.0195 0.17524351,0.17524351 0 0 0 -0.01,0.0295 0.17524351,0.17524351 0 0 0 -0.0497,0.0491 0.17524351,0.17524351 0 0 0 -0.01,0.0295 c -0.71123,4.05597 -1.80356,7.53092 -3.09103,9.94056 -0.64374,1.20482 -1.3182,2.12438 -2.02462,2.74352 -0.70641,0.61913 -1.41357,0.94211 -2.12084,0.89487 -0.87494,-0.0584 -1.71521,-0.66934 -2.44907,-1.72617 -0.73385,-1.05684 -1.36273,-2.56429 -1.85766,-4.42992 -0.98986,-3.73125 -1.43224,-8.83675 -1.05896,-14.42548 0.3733,-5.58876 1.50579,-10.61105 2.98121,-14.17095 0.73771,-1.77994 1.56208,-3.17691 2.42922,-4.12431 0.86713,-0.94741 1.74314,-1.4441 2.61828,-1.38564 0.70758,0.0473 1.39867,0.44514 2.01813,1.15008 0.61947,0.70489 1.16981,1.72948 1.64984,3.00547 0.96007,2.55197 1.5937,6.12571 1.75918,10.24009 a 0.17524351,0.17524351 0 0 0 -0.01,0.0295 0.17524351,0.17524351 0 0 0 0.0195,0.0396 0.17524351,0.17524351 0 0 0 0.0195,0.0396 0.17524351,0.17524351 0 0 0 0.0296,0.01 0.17524351,0.17524351 0 0 0 0.11831,0.0404 c 1.62355,-0.16219 3.36038,-0.20514 5.17891,-0.0837 2.8195,0.18832 5.42013,0.74177 7.60915,1.50401 a 0.17524351,0.17524351 0 0 0 0.0296,0.01 0.17524351,0.17524351 0 0 0 0.0396,-0.0195 0.17524351,0.17524351 0 0 0 0.0295,0.01 0.17524351,0.17524351 0 0 0 0.0396,-0.0195 0.17524351,0.17524351 0 0 0 0.0396,-0.0195 0.17524351,0.17524351 0 0 0 0.01,-0.0295 0.17524351,0.17524351 0 0 0 0.0497,-0.0491 0.17524351,0.17524351 0 0 0 -0.009,-0.0691 c -0.11284,-1.1896 -0.29346,-2.38768 -0.52927,-3.58098 -2.37757,-12.03101 -10.58277,-21.44445 -21.09232,-25.87586 -0.78821,-0.33237 -1.59279,-0.61062 -2.40531,-0.88587 z"
         style="fill:none;stroke:#000000;stroke-width:1;stroke-linecap:butt;stroke-linejoin:bevel;stroke-miterlimit:4;stroke-opacity:1;stroke-dasharray:none;display:inline"
         inkscape:connector-curvature="0" />
      <path
         inkscape:connector-curvature="0"
         d="m 287.63521,165.73306 c 1.79379,0.002 3.14901,-0.61138 4.06566,-1.84034 0.91664,-1.2363 1.37635,-3.0625 1.37915,-5.47868 0.003,-2.42348 -0.45269,-4.25075 -1.36642,-5.48188 -0.91378,-1.23841 -2.26756,-1.85865 -4.06136,-1.86076 -1.80114,-0.002 -3.16,0.61503 -4.07665,1.85132 -0.91664,1.22898 -1.37636,3.0552 -1.37913,5.47866 -0.003,2.41616 0.45266,4.24343 1.3664,5.48186 0.91379,1.23114 2.27123,1.84772 4.07237,1.84981 m -10e-4,1.17513 c -1.1129,-10e-4 -2.13772,-0.18556 -3.07445,-0.5527 -0.92943,-0.36717 -1.74884,-0.90625 -2.4582,-1.61729 -0.8191,-0.82096 -1.42936,-1.75153 -1.83083,-2.79166 -0.39419,-1.04016 -0.59075,-2.22275 -0.58895,-3.54805 0.002,-1.32521 0.20063,-2.50742 0.59718,-3.54666 0.40391,-1.04652 1.01635,-1.97932 1.83732,-2.7984 0.71835,-0.71667 1.53901,-1.25387 2.46196,-1.61156 0.92295,-0.36499 1.9482,-0.54681 3.07574,-0.54556 2.37953,0.003 4.30055,0.78477 5.76309,2.34596 1.4625,1.56123 2.19227,3.61946 2.18932,6.17471 -0.002,1.3106 -0.20429,2.49281 -0.60816,3.54665 -0.40392,1.04653 -1.01636,1.97566 -1.83731,2.78742 -0.71837,0.71669 -1.53903,1.25754 -2.46197,1.62255 -0.92295,0.3577 -1.94454,0.5359 -3.06474,0.53459"
         style="font-size:22.49215125999999998px;font-style:normal;font-variant:normal;font-weight:normal;font-stretch:normal;text-align:start;line-height:125%;writing-mode:lr-tb;text-anchor:start;fill:#ff0000;stroke:#ff0000;stroke-width:1;stroke-miterlimit:4;stroke-opacity:1;stroke-dasharray:none;font-family:Serif;-inkscape-font-specification:Serif;fill-opacity:1"
         id="path3183-0-2-8" />
      <path
         id="path17707-5-2-4"
         d="m 365.64095,206.50431 c 5.68755,1.92704 11.92842,2.4484 18.24459,1.20017 7.61937,-1.50572 14.1887,-5.34108 19.10503,-10.62315 a 0.17524351,0.17524351 0 0 0 0.0497,-0.0491 0.17524351,0.17524351 0 0 0 -0.009,-0.0693 0.17524351,0.17524351 0 0 0 0.01,-0.0295 0.17524351,0.17524351 0 0 0 -0.0195,-0.0396 0.17524351,0.17524351 0 0 0 -0.0195,-0.0396 0.17524351,0.17524351 0 0 0 -0.0295,-0.01 0.17524351,0.17524351 0 0 0 -0.0195,-0.0396 0.17524351,0.17524351 0 0 0 -0.0294,-0.01 c -2.1977,-0.73344 -4.59768,-1.88443 -6.94375,-3.45624 -1.51415,-1.01445 -2.86319,-2.10923 -4.04974,-3.22918 a 0.17524351,0.17524351 0 0 0 -0.0491,-0.0497 0.17524351,0.17524351 0 0 0 -0.0692,0.009 0.17524351,0.17524351 0 0 0 -0.0295,-0.01 0.17524351,0.17524351 0 0 0 -0.0396,0.0195 0.17524351,0.17524351 0 0 0 -0.0396,0.0195 0.17524351,0.17524351 0 0 0 -0.01,0.0295 c -2.6437,3.15668 -5.3504,5.59207 -7.67653,7.02399 -1.16306,0.71596 -2.21806,1.19328 -3.14195,1.37222 -0.92389,0.17894 -1.71134,0.0728 -2.30041,-0.32186 -0.72867,-0.48819 -1.11898,-1.41649 -1.227,-2.69628 -0.10802,-1.27977 0.0924,-2.88942 0.59532,-4.74939 1.00586,-3.71994 3.17638,-8.38841 6.29406,-13.04178 3.11764,-4.65335 6.58604,-8.42586 9.64865,-10.77587 1.53131,-1.175 2.94992,-1.98457 4.17647,-2.37324 1.22654,-0.38866 2.26499,-0.35918 2.99348,0.12889 0.58896,0.3946 0.94889,1.08113 1.13284,2.00387 0.18396,0.92273 0.17961,2.07061 -0.0428,3.41899 -0.44486,2.69677 -1.70961,6.11325 -3.62345,9.75909 a 0.17524351,0.17524351 0 0 0 -0.01,0.0295 0.17524351,0.17524351 0 0 0 0.009,0.0691 0.17524351,0.17524351 0 0 0 0.009,0.0692 0.17524351,0.17524351 0 0 0 0.0195,0.0396 0.17524351,0.17524351 0 0 0 0.0296,0.01 0.17524351,0.17524351 0 0 0 0.0195,0.0396 c 1.48734,0.67144 3.07447,1.50715 4.58817,2.52129 2.34586,1.57168 4.28166,3.32509 5.79633,5.07908 a 0.17524351,0.17524351 0 0 0 0.0294,0.01 0.17524351,0.17524351 0 0 0 0.0491,0.0497 0.17524351,0.17524351 0 0 0 0.0988,6e-4 0.17524351,0.17524351 0 0 0 0.0396,-0.0195 0.17524351,0.17524351 0 0 0 0.0396,-0.0195 0.17524351,0.17524351 0 0 0 0.01,-0.0295 0.17524351,0.17524351 0 0 0 0.0396,-0.0195 c 3.01465,-6.55535 4.09337,-14.11351 2.5875,-21.73359 -1.24133,-6.28144 -4.07933,-11.84437 -7.9932,-16.35977 l 16.53227,-14.50455 a 0.17524351,0.17524351 0 0 0 0.01,-0.0295 0.17524351,0.17524351 0 0 0 0.0497,-0.0491 0.17524351,0.17524351 0 0 0 -0.009,-0.0691 0.17524351,0.17524351 0 0 0 0.01,-0.0296 0.17524351,0.17524351 0 0 0 -0.0195,-0.0396 0.17524351,0.17524351 0 0 0 -0.0195,-0.0396 C 406.86699,119.3384 386.0144,112.26412 365.79484,116.25985 a 0.17524351,0.17524351 0 0 0 -0.0396,0.0195 0.17524351,0.17524351 0 0 0 -0.0497,0.0491 0.17524351,0.17524351 0 0 0 -0.0497,0.0491 0.17524351,0.17524351 0 0 0 0.009,0.0691 0.17524351,0.17524351 0 0 0 -0.01,0.0295 l 4.272,21.56248 c -14.0819,2.85653 -24.53994,13.68561 -27.57494,26.85215 a 0.17524351,0.17524351 0 0 0 0.0195,0.0396 0.17524351,0.17524351 0 0 0 -0.01,0.0295 0.17524351,0.17524351 0 0 0 0.0195,0.0396 0.17524351,0.17524351 0 0 0 0.0195,0.0396 0.17524351,0.17524351 0 0 0 0.0786,0.0598 0.17524351,0.17524351 0 0 0 0.0691,-0.009 0.17524351,0.17524351 0 0 0 0.0295,0.01 c 2.26117,-0.45838 4.90627,-0.62948 7.71121,-0.44211 1.82042,0.12157 3.56799,0.38989 5.15342,0.76604 a 0.17524351,0.17524351 0 0 0 0.0396,-0.0195 0.17524351,0.17524351 0 0 0 0.0296,0.01 0.17524351,0.17524351 0 0 0 0.0396,-0.0195 0.17524351,0.17524351 0 0 0 0.0396,-0.0195 0.17524351,0.17524351 0 0 0 0.01,-0.0295 0.17524351,0.17524351 0 0 0 0.0497,-0.0491 0.17524351,0.17524351 0 0 0 0.01,-0.0294 c 0.71122,-4.05597 1.80355,-7.53093 3.09102,-9.94056 0.64374,-1.20482 1.31821,-2.1244 2.02461,-2.74352 0.70643,-0.61914 1.41359,-0.94211 2.12086,-0.89488 0.87493,0.0584 1.71521,0.66935 2.44907,1.72617 0.73385,1.05684 1.36273,2.5643 1.85765,4.42993 0.98987,3.73125 1.43224,8.83674 1.05896,14.42548 -0.37329,5.58876 -1.50579,10.61104 -2.9812,14.17094 -0.73772,1.77993 -1.56208,3.1769 -2.42922,4.12431 -0.86714,0.9474 -1.74315,1.4441 -2.61828,1.38564 -0.70758,-0.0473 -1.39867,-0.44514 -2.01813,-1.15008 -0.61947,-0.70489 -1.16983,-1.72949 -1.64985,-3.00548 -0.96007,-2.55196 -1.59369,-6.1257 -1.75918,-10.24007 a 0.17524351,0.17524351 0 0 0 0.01,-0.0296 0.17524351,0.17524351 0 0 0 -0.0195,-0.0396 0.17524351,0.17524351 0 0 0 -0.0195,-0.0396 0.17524351,0.17524351 0 0 0 -0.0296,-0.01 0.17524351,0.17524351 0 0 0 -0.11831,-0.0404 c -1.62354,0.16218 -3.36038,0.20513 -5.17891,0.0837 -2.81949,-0.18832 -5.42013,-0.74177 -7.60915,-1.50401 a 0.17524351,0.17524351 0 0 0 -0.0295,-0.01 0.17524351,0.17524351 0 0 0 -0.0396,0.0195 0.17524351,0.17524351 0 0 0 -0.0295,-0.01 0.17524351,0.17524351 0 0 0 -0.0396,0.0195 0.17524351,0.17524351 0 0 0 -0.0396,0.0195 0.17524351,0.17524351 0 0 0 -0.01,0.0295 0.17524351,0.17524351 0 0 0 -0.0497,0.0491 0.17524351,0.17524351 0 0 0 0.009,0.0691 c 0.11284,1.1896 0.29345,2.38766 0.52927,3.58098 2.37757,12.031 10.58277,21.44443 21.09232,25.87584 0.78821,0.33237 1.59279,0.61061 2.40532,0.88587 z"
         style="fill:none;stroke:#000000;stroke-width:1;stroke-linecap:butt;stroke-linejoin:bevel;stroke-miterlimit:4;stroke-opacity:1;stroke-dasharray:none;display:inline"
         inkscape:connector-curvature="0" />
      <path
         inkscape:connector-curvature="0"
         d="m 381.84411,151.07428 c -1.79307,0.0514 -3.12938,0.705 -4.00898,1.96076 -0.87936,1.26309 -1.28441,3.1022 -1.21515,5.51738 0.0695,2.42247 0.57924,4.23534 1.52926,5.43868 0.9503,1.21061 2.32198,1.79021 4.11505,1.73882 1.80039,-0.0516 3.14026,-0.70897 4.01964,-1.97204 0.87959,-1.25578 1.28465,-3.0949 1.21515,-5.51738 -0.0692,-2.41516 -0.579,-4.22804 -1.52927,-5.43867 -0.95008,-1.20332 -2.32531,-1.77916 -4.12571,-1.72755 m -0.0337,-1.17464 c 1.11245,-0.0319 2.1423,0.12171 3.08957,0.46078 0.93996,0.33929 1.77508,0.85369 2.50533,1.54326 0.84321,0.79618 1.48095,1.70814 1.91327,2.73583 0.42502,1.02792 0.65675,2.20414 0.69448,3.52891 0.038,1.32466 -0.12572,2.5123 -0.49115,3.56289 -0.37252,1.0581 -0.95687,2.00874 -1.75306,2.85194 -0.69667,0.73779 -1.50093,1.2992 -2.4128,1.68427 -0.91165,0.39236 -1.93102,0.60467 -3.0581,0.63703 -2.37856,0.0682 -4.32203,-0.65618 -5.83048,-2.17307 -1.50841,-1.51692 -2.29923,-3.55246 -2.37248,-6.10668 -0.0375,-1.31007 0.12983,-2.49778 0.50212,-3.56321 0.37254,-1.05809 0.95699,-2.00508 1.75337,-2.84096 0.69668,-0.73779 1.50085,-1.30288 2.4125,-1.69524 0.91187,-0.38507 1.92769,-0.59365 3.04743,-0.62575"
         style="font-size:22.49215125999999998px;font-style:normal;font-variant:normal;font-weight:normal;font-stretch:normal;text-align:start;line-height:125%;writing-mode:lr-tb;text-anchor:start;fill:#ff0000;stroke:#ff0000;stroke-width:1;stroke-miterlimit:4;stroke-opacity:1;stroke-dasharray:none;font-family:Serif;-inkscape-font-specification:Serif;fill-opacity:1"
         id="path3183-0-2-0" />
      <text
         inkscape:transform-center-y="3.6120493"
         inkscape:transform-center-x="8.0576348"
         sodipodi:linespacing="125%"
         id="text4093-8"
         y="166.09042"
         x="311.05515"
         style="font-size:21.09230042000000083px;font-style:normal;font-variant:normal;font-weight:normal;font-stretch:normal;line-height:125%;letter-spacing:0px;word-spacing:0px;fill:#ff0000;stroke:#ff0000;stroke-width:1.10022913999999994;stroke-miterlimit:4;stroke-opacity:1;stroke-dasharray:none;font-family:DejaVu Sans;-inkscape-font-specification:DejaVu Sans;fill-opacity:1"
         xml:space="preserve"><tspan
           style="fill:#ff0000;stroke:#ff0000;stroke-width:1.10022913999999994;stroke-miterlimit:4;stroke-opacity:1;stroke-dasharray:none;fill-opacity:1"
           y="166.09042"
           x="311.05515"
           id="tspan4095-9"
           sodipodi:role="line">R</tspan></text>
      <text
         sodipodi:linespacing="125%"
         id="text4093-3-0"
         y="166.08012"
         x="342.68481"
         style="font-size:21.09230042000000083px;font-style:normal;font-variant:normal;font-weight:normal;font-stretch:normal;line-height:125%;letter-spacing:0px;word-spacing:0px;fill:#ff0000;stroke:#ff0000;stroke-width:1.10022913999999994;stroke-miterlimit:4;stroke-opacity:1;stroke-dasharray:none;font-family:DejaVu Sans;-inkscape-font-specification:DejaVu Sans;fill-opacity:1"
         xml:space="preserve"><tspan
           style="fill:#ff0000;stroke:#ff0000;stroke-width:1.10022913999999994;stroke-miterlimit:4;stroke-opacity:1;stroke-dasharray:none;fill-opacity:1"
           y="166.08012"
           x="342.68481"
           id="tspan4095-7-7"
           sodipodi:role="line">G</tspan></text>
    </g>
    <g
       id="g4328"
       transform="translate(46.467017,-144.95689)">
      <text
         sodipodi:linespacing="125%"
         id="text4207"
         y="273.02951"
         x="-5.0507603"
         style="font-size:18px;font-style:normal;font-variant:normal;font-weight:normal;font-stretch:normal;line-height:125%;letter-spacing:0px;word-spacing:0px;fill:#000000;fill-opacity:1;stroke:none;font-family:DejaVu Sans;-inkscape-font-specification:DejaVu Sans"
         xml:space="preserve"><tspan
           y="273.02951"
           x="-5.0507603"
           id="tspan4209"
           sodipodi:role="line">ORGANIC </tspan></text>
      <path
         id="path17707-5-2-9-2"
         d="m 61.512133,190.56279 c -6.005132,0.0109 -12.080511,1.53084 -17.656253,4.75003 -6.726164,3.88336 -11.706879,9.63301 -14.656248,16.21875 a 0.17524351,0.17524351 0 0 0 -0.03139,0.0624 0.17524351,0.17524351 0 0 0 0.03124,0.0625 0.17524351,0.17524351 0 0 0 6e-5,0.0311 0.17524351,0.17524351 0 0 0 0.03119,0.0312 0.17524351,0.17524351 0 0 0 0.03119,0.0312 0.17524351,0.17524351 0 0 0 0.03118,-1e-5 0.17524351,0.17524351 0 0 0 0.03119,0.0312 0.17524351,0.17524351 0 0 0 0.0311,-6e-5 c 2.316817,-0.0148 4.959806,0.30037 7.687512,1.03126 1.760458,0.47172 3.390577,1.07273 4.874994,1.75001 a 0.17524351,0.17524351 0 0 0 0.06236,0.0314 0.17524351,0.17524351 0 0 0 0.06249,-0.0312 0.17524351,0.17524351 0 0 0 0.0311,-6e-5 0.17524351,0.17524351 0 0 0 0.03117,-0.0312 0.17524351,0.17524351 0 0 0 0.03117,-0.0312 0.17524351,0.17524351 0 0 0 -6e-5,-0.0311 c 1.48394,-3.8408 3.260197,-7.01921 4.999984,-9.12501 0.869892,-1.05289 1.7145,-1.84506 2.531262,-2.31249 0.816754,-0.46744 1.59634,-0.62102 2.281241,-0.4375 0.84721,0.227 1.51614,0.97972 2.03126,2.15625 0.515114,1.1765 0.844715,2.76473 0.968748,4.6875 0.248039,3.84554 -0.300291,8.96464 -1.750004,14.37501 -1.449687,5.41034 -3.515554,10.1001 -5.656249,13.31249 -1.070361,1.6062 -2.151935,2.83017 -3.187494,3.59375 -1.035578,0.76359 -2.028004,1.0707 -2.874999,0.84376 -0.684791,-0.18349 -1.246769,-0.71751 -1.718757,-1.53125 -0.471802,-0.81405 -0.838017,-1.90195 -1.062494,-3.25 -0.448965,-2.69609 -0.354052,-6.3379 0.281249,-10.40624 a 0.17524351,0.17524351 0 0 0 -6e-5,-0.0311 0.17524351,0.17524351 0 0 0 -0.0312,-0.0624 0.17524351,0.17524351 0 0 0 -0.03124,-0.0625 0.17524351,0.17524351 0 0 0 -0.03119,-0.0312 0.17524351,0.17524351 0 0 0 -0.0311,6e-5 0.17524351,0.17524351 0 0 0 -0.03119,-0.0312 c -1.624431,-0.15568 -3.396322,-0.43467 -5.15626,-0.90625 -2.72747,-0.73081 -5.125442,-1.76596 -7.124995,-2.93749 a 0.17524351,0.17524351 0 0 0 -0.0311,6e-5 0.17524351,0.17524351 0 0 0 -0.06236,-0.0314 0.17524351,0.17524351 0 0 0 -0.09367,0.0312 0.17524351,0.17524351 0 0 0 -0.03117,0.0312 0.17524351,0.17524351 0 0 0 -0.03117,0.0312 0.17524351,0.17524351 0 0 0 6e-5,0.0311 0.17524351,0.17524351 0 0 0 -0.03117,0.0312 c -0.738596,7.17742 0.678778,14.67944 4.562498,21.40624 3.201462,5.54511 7.682411,9.89499 12.843757,12.90626 l -10.968852,19.06261 a 0.17524351,0.17524351 0 0 0 6e-5,0.0311 0.17524351,0.17524351 0 0 0 -0.03139,0.0624 0.17524351,0.17524351 0 0 0 0.03124,0.0625 0.17524351,0.17524351 0 0 0 6e-5,0.0311 0.17524351,0.17524351 0 0 0 0.03119,0.0312 0.17524351,0.17524351 0 0 0 0.03119,0.0312 c 17.849571,10.30546 39.86944,10.27406 57.718766,-0.0312 a 0.17524351,0.17524351 0 0 0 0.03117,-0.0312 0.17524351,0.17524351 0 0 0 0.03139,-0.0624 0.17524351,0.17524351 0 0 0 0.03139,-0.0624 0.17524351,0.17524351 0 0 0 -0.03107,-0.0624 0.17524351,0.17524351 0 0 0 -6e-5,-0.0311 l -11,-19.0313 c 12.407354,-7.24687 18.812548,-20.87085 17.437503,-34.3125 a 0.17524351,0.17524351 0 0 0 -0.03119,-0.0312 0.17524351,0.17524351 0 0 0 -9.6e-5,-0.0312 0.17524351,0.17524351 0 0 0 -0.03119,-0.0312 0.17524351,0.17524351 0 0 0 -0.03119,-0.0312 0.17524351,0.17524351 0 0 0 -0.09373,-0.0313 0.17524351,0.17524351 0 0 0 -0.06235,0.0312 0.17524351,0.17524351 0 0 0 -0.0311,6e-5 c -1.992393,1.16336 -4.44087,2.17867 -7.156268,2.90624 -1.762297,0.47222 -3.502987,0.78205 -5.125,0.9375 a 0.17524351,0.17524351 0 0 0 -0.03117,0.0312 0.17524351,0.17524351 0 0 0 -0.0311,6e-5 0.17524351,0.17524351 0 0 0 -0.03117,0.0312 0.17524351,0.17524351 0 0 0 -0.03117,0.0312 0.17524351,0.17524351 0 0 0 6e-5,0.0311 0.17524351,0.17524351 0 0 0 -0.03139,0.0624 0.17524351,0.17524351 0 0 0 6e-5,0.0311 c 0.635334,4.06855 0.722498,7.71009 0.281255,10.40625 -0.220617,1.34808 -0.562353,2.43606 -1.031247,3.24999 -0.468908,0.81393 -1.034048,1.34779 -1.718746,1.53126 -0.847013,0.22695 -1.839441,-0.0802 -2.875005,-0.84377 -1.035573,-0.76357 -2.117156,-1.98753 -3.187504,-3.59374 -2.140696,-3.21238 -4.206549,-7.90216 -5.656248,-13.31249 -1.449703,-5.41036 -1.998046,-10.52946 -1.749998,-14.37501 0.124017,-1.92277 0.453629,-3.51099 0.968744,-4.6875 0.515123,-1.1765 1.184054,-1.92924 2.03125,-2.15624 0.684993,-0.18355 1.467482,-0.0299 2.28125,0.43749 0.813687,0.46748 1.665237,1.25961 2.531257,2.3125 1.732039,2.10578 3.484731,5.28401 4.96874,9.12501 a 0.17524351,0.17524351 0 0 0 6e-5,0.0311 0.17524351,0.17524351 0 0 0 0.03119,0.0312 0.17524351,0.17524351 0 0 0 0.03119,0.0312 0.17524351,0.17524351 0 0 0 0.03123,-10e-5 0.17524351,0.17524351 0 0 0 0.125032,2e-5 c 1.484402,-0.6773 3.11452,-1.27829 4.874999,-1.75001 2.729483,-0.73136 5.369613,-1.04652 7.687496,-1.03125 a 0.17524351,0.17524351 0 0 0 0.03123,-10e-5 0.17524351,0.17524351 0 0 0 0.03117,-0.0312 0.17524351,0.17524351 0 0 0 0.0311,-6e-5 0.17524351,0.17524351 0 0 0 0.03117,-0.0312 0.17524351,0.17524351 0 0 0 0.03117,-0.0312 0.17524351,0.17524351 0 0 0 -6e-5,-0.0311 0.17524351,0.17524351 0 0 0 0.03139,-0.0624 0.17524351,0.17524351 0 0 0 -0.0312,-0.0624 c -0.490602,-1.08961 -1.04808,-2.16535 -1.656259,-3.21877 -6.131855,-10.62066 -16.935263,-16.88361 -28.312507,-17.6875 -0.853288,-0.0603 -1.704622,-0.0641 -2.562499,-0.0625 z"
         style="fill:#ffffff;fill-opacity:1;stroke:#000000;stroke-width:1;stroke-linecap:butt;stroke-linejoin:bevel;stroke-miterlimit:4;stroke-opacity:1;stroke-dasharray:none;display:inline"
         inkscape:connector-curvature="0" />
      <path
         inkscape:connector-curvature="0"
         d="m 60.595444,273.28555 c 1.793794,0 3.148297,-0.61503 4.063516,-1.84508 0.9152,-1.23735 1.372796,-3.06409 1.37282,-5.48025 -1.6e-5,-2.42347 -0.457619,-4.25022 -1.372779,-5.48028 -0.91521,-1.23735 -2.269714,-1.85604 -4.063517,-1.85604 -1.801143,1e-5 -3.159301,0.61869 -4.074506,1.85605 -0.915214,1.23004 -1.372806,3.05679 -1.372815,5.48025 -2e-6,2.41616 0.4576,4.24291 1.372778,5.48027 0.91521,1.23005 2.273366,1.84508 4.074503,1.84508 m 2e-6,1.17512 c -1.1129,0 -2.137933,-0.18306 -3.075101,-0.54913 -0.929846,-0.36608 -1.749898,-0.90419 -2.460077,-1.61442 -0.820035,-0.82002 -1.431379,-1.74988 -1.834063,-2.78955 -0.395386,-1.03968 -0.593339,-2.22205 -0.593066,-3.54736 10e-7,-1.32521 0.19768,-2.50766 0.593066,-3.54734 0.402683,-1.04699 1.014034,-1.9805 1.834067,-2.80054 0.717518,-0.7175 1.537534,-1.25565 2.460079,-1.61442 0.922516,-0.36607 1.947564,-0.54908 3.0751,-0.54913 2.379532,3e-5 4.301461,0.77977 5.765808,2.33926 1.464314,1.55954 2.196476,3.61692 2.196503,6.17217 -2e-5,1.31059 -0.201368,2.49304 -0.604043,3.54735 -0.402711,1.047 -1.014061,1.97685 -1.83407,2.78955 -0.717538,0.71753 -1.537572,1.25933 -2.460076,1.62541 -0.922545,0.35878 -1.943925,0.53816 -3.064127,0.53815"
         style="font-size:22.49215126px;font-style:normal;font-variant:normal;font-weight:normal;font-stretch:normal;text-align:start;line-height:125%;writing-mode:lr-tb;text-anchor:start;fill:none;stroke:#ff0000;stroke-width:1;stroke-miterlimit:4;stroke-opacity:1;stroke-dasharray:none;font-family:Serif;-inkscape-font-specification:Serif"
         id="path3183-0-2-8-5" />
    </g>
    <flowRoot
       xml:space="preserve"
       id="flowRoot4320"
       style="fill:black;stroke:none;stroke-opacity:1;stroke-width:1px;stroke-linejoin:miter;stroke-linecap:butt;fill-opacity:1;font-family:DejaVu Sans;font-style:normal;font-weight:normal;font-size:18;-inkscape-font-specification:DejaVu Sans;font-stretch:normal;font-variant:normal;line-height:125%;letter-spacing:0px;word-spacing:0px"><flowRegion
         id="flowRegion4322"><rect
           id="rect4324"
           width="196.97975"
           height="175.26146"
           x="-62.629459"
           y="123.02184" /></flowRegion><flowPara
         id="flowPara4326"></flowPara></flowRoot>  </g>
</svg>
